<svg width="42" height="54" viewBox="0 0 42 54" fill="none" xmlns="http://www.w3.org/2000/svg">
<path d="M21.0547 1.927C24.0224 1.92716 26.6974 3.4357 28.9638 5.59595C31.2379 7.76361 33.233 10.7077 34.8779 13.8928C38.1544 20.2373 40.2207 27.8941 40.2207 33.1086C40.2207 43.7576 31.6476 52.417 21.0547 52.4172C10.4615 52.4172 1.88766 43.7577 1.88766 33.1086C1.88767 27.8941 3.95397 20.2373 7.23044 13.8928C8.87535 10.7077 10.8704 7.76361 13.1445 5.59595C15.4111 3.43557 18.0868 1.927 21.0547 1.927Z" fill="url(#paint0_radial_4_1130)" stroke="#B67B36" stroke-width="3"/>
<path fill-rule="evenodd" clip-rule="evenodd" d="M30.0174 8.99833L26.5631 14.2549L27.7029 18.624L22.3839 24.1329L21.4341 30.2117L17.4449 34.2009L22.3839 30.2117L23.3337 24.5128L28.8427 18.624C28.2728 17.1676 27.247 14.2549 27.7029 14.2549C28.059 14.2549 29.752 12.1685 31.0796 10.4403C30.7342 9.94058 30.38 9.45893 30.0174 8.99833ZM3.49643 30.9638C3.72829 31.1579 3.94619 31.347 4.121 31.5027L8.79029 29.5811L12.3531 30.28L15.7796 28.2734L12.5603 29.7254L8.77379 28.9429L4.36965 30.8371L3.57012 30.2775C3.54247 30.5094 3.51789 30.7383 3.49643 30.9638ZM11.8877 9.25989C12.2156 9.63405 12.4728 9.88572 12.57 9.88572C12.8542 9.88572 12.2148 11.7166 11.8595 12.632L15.2936 16.3336L15.8857 19.9157L18.9646 22.4232L16.4778 19.9157L15.8857 16.0948L12.57 12.632L13.2805 9.88572L12.4286 8.57849C12.2463 8.80034 12.066 9.0276 11.8877 9.25989Z" fill="#FFD4A2"/>
<defs>
<radialGradient id="paint0_radial_4_1130" cx="0" cy="0" r="1" gradientUnits="userSpaceOnUse" gradientTransform="translate(21.0542 27.1723) rotate(90) scale(23.7453 17.6665)">
<stop offset="0.447917" stop-color="#FFECD6"/>
<stop offset="1" stop-color="#FFE3C2"/>
</radialGradient>
</defs>
</svg>
