<svg width="146" height="85" viewBox="0 0 146 85" fill="none" xmlns="http://www.w3.org/2000/svg">
<path d="M61.0061 5.1451C47.7759 5.51261 22.7854 13.9653 20.5804 15.8028C23.5204 25.603 32.1936 47.1879 43.3658 55.1261C57.3311 65.0487 87.4667 55.8611 103.269 52.186C115.912 49.2459 125.197 29.4006 128.26 19.8454C125.075 18.4979 116.059 14.5533 105.474 9.55518C92.2442 3.30756 74.2364 4.77759 61.0061 5.1451Z" fill="url(#paint0_linear_4_1203)"/>
<path d="M5.51263 32.7082V24.2555C9.80022 24.2555 19.1839 24.6965 22.418 26.4605C26.4605 28.6656 32.3406 30.5031 38.2208 35.6482C44.1009 40.7933 53.2885 39.6908 59.1687 41.5283C65.0488 43.3659 71.2964 40.7933 78.279 41.5283C83.8651 42.1163 91.3868 46.4284 94.4493 48.511L91.8768 54.3911C87.7117 52.7985 78.4995 49.393 74.9715 48.511C70.5614 47.4084 59.5362 48.511 51.0835 46.6734C42.6308 44.8359 35.2807 41.1608 26.4605 35.6482C19.4044 31.2381 9.55521 31.8506 5.51263 32.7082Z" fill="#9D6E13"/>
<path d="M15.3975 50.8179L13.2303 42.6478C17.3745 41.5485 26.5576 39.5689 30.1359 40.4448C34.6087 41.5396 40.7634 41.8082 47.7661 45.2737C54.7688 48.7392 63.3667 45.3179 69.5213 45.5864C75.676 45.8549 81.0552 41.7666 87.9929 40.6867C93.5431 39.8229 101.919 42.0624 105.413 43.2901L104.434 49.6332C99.9999 49.1618 90.2225 48.232 86.5862 48.284C82.0408 48.349 71.6668 52.2414 63.0256 52.6325C54.3844 53.0235 46.3377 51.3558 36.3989 48.2889C28.448 45.8353 19.085 48.9526 15.3975 50.8179Z" fill="#9D6E13"/>
<path d="M93.6232 52.3464L97.0219 44.1169C93.159 42.5216 84.5274 39.4595 80.9044 39.9736C76.3757 40.6162 70.3392 40.2174 62.9727 43.0387C55.6063 45.8601 47.772 41.3681 41.7355 40.9692C35.699 40.5704 31.1046 35.7411 24.5181 33.8586C19.2488 32.3526 10.7384 33.7522 7.14187 34.6402L7.09531 41.3222C11.4882 41.3215 21.1572 41.4335 24.6904 41.8875C29.107 42.455 38.5968 47.6307 46.951 48.9868C55.3053 50.3429 63.405 49.4997 73.5681 47.4145C81.6985 45.7463 90.3258 50.0074 93.6232 52.3464Z" fill="#8A5F0D"/>
<path d="M25.166 57.7822L22.0504 52.3859C24.5835 50.9234 30.2898 48.0043 32.8506 48.0274C36.0517 48.0562 40.2028 47.2237 45.5732 48.5028C50.9435 49.7819 55.965 45.9442 60.1162 45.1117C64.2674 44.2792 67.0102 40.5058 71.4063 38.5933C74.9232 37.0634 80.9563 37.2507 83.5332 37.5357L84.1808 42.1671C81.1331 42.5711 74.4354 43.5391 72.026 44.1794C69.0142 44.9797 62.9071 49.4442 57.2361 51.1542C51.5651 52.8642 45.8681 53.025 38.6254 52.5141C32.8312 52.1054 27.2382 55.8559 25.166 57.7822Z" fill="#8A5F0D"/>
<path d="M17.0604 39.1109L15.4353 33.0954C18.259 32.3326 24.5236 30.977 26.9926 31.6571C30.0789 32.5072 34.3046 32.7688 39.1663 35.3843C44.0279 37.9998 49.8667 35.5806 54.0924 35.8422C58.3182 36.1038 61.9381 33.1615 66.678 32.4423C70.4699 31.867 76.2524 33.5976 78.6697 34.5349L78.106 39.1773C75.0568 38.7849 68.3352 38.0002 65.8421 38.0001C62.7258 38.0001 55.6769 40.7462 49.7569 40.9423C43.837 41.1383 38.2898 39.8305 31.4213 37.4765C25.9265 35.5933 19.5578 37.7815 17.0604 39.1109Z" fill="#A87616"/>
<path d="M117.211 42.9983V34.5457C112.923 34.5457 103.539 34.9867 100.305 36.7507C96.2629 38.9557 90.3827 40.7933 84.5026 45.9384C78.6225 51.0835 69.4348 49.9809 63.5547 51.8185C57.6746 53.656 51.427 51.0835 44.4444 51.8185C38.8583 52.4065 31.3366 56.7186 28.2741 58.8011L30.8466 64.6812C35.0117 63.0887 44.2239 59.6831 47.7519 58.8011C52.162 57.6986 63.1872 58.8011 71.6399 56.9636C80.0925 55.126 87.4427 51.451 96.2629 45.9384C103.319 41.5283 113.168 42.1408 117.211 42.9983Z" fill="#9D6E13"/>
<path d="M107.326 61.108L109.493 52.9379C105.349 51.8386 96.1658 49.859 92.5875 50.7349C88.1147 51.8298 81.96 52.0983 74.9573 55.5638C67.9546 59.0294 59.3567 55.6081 53.202 55.8766C47.0474 56.1451 41.6681 52.0567 34.7305 50.9769C29.1803 50.1131 20.8045 52.3525 17.3104 53.5803L18.2894 59.9234C22.7235 59.452 32.5009 58.5221 36.1372 58.5742C40.6825 58.6392 51.0566 62.5316 59.6978 62.9226C68.339 63.3137 76.3857 61.646 86.3244 58.579C94.2754 56.1255 103.638 59.2427 107.326 61.108Z" fill="#9D6E13"/>
<path d="M29.1002 62.6366L25.7015 54.4071C29.5644 52.8118 38.1959 49.7496 41.819 50.2638C46.3477 50.9064 52.3842 50.5075 59.7507 53.3289C67.1171 56.1502 74.9514 51.6583 80.9879 51.2594C87.0244 50.8605 91.6188 46.0313 98.2053 44.1488C103.475 42.6428 111.985 44.0423 115.582 44.9304L115.628 51.6124C111.235 51.6117 101.566 51.7237 98.033 52.1777C93.6164 52.7452 84.1266 57.9209 75.7724 59.277C67.4181 60.633 59.3183 59.7899 49.1553 57.7046C41.0249 56.0365 32.3976 60.2975 29.1002 62.6366Z" fill="#8A5F0D"/>
<path d="M97.5574 68.0723L100.673 62.676C98.1399 61.2135 92.4337 58.2944 89.8728 58.3175C86.6718 58.3463 82.5206 57.5138 77.1503 58.7929C71.7799 60.072 66.7584 56.2343 62.6072 55.4018C58.456 54.5693 55.7133 50.7959 51.3171 48.8834C47.8002 47.3535 41.7671 47.5408 39.1902 47.8258L38.5427 52.4572C41.5903 52.8612 48.288 53.8292 50.6974 54.4695C53.7092 55.2698 59.8163 59.7343 65.4873 61.4443C71.1583 63.1543 76.8553 63.3151 84.098 62.8042C89.8922 62.3955 95.4852 66.146 97.5574 68.0723Z" fill="#8A5F0D"/>
<path d="M105.663 49.401L107.288 43.3855C104.464 42.6227 98.1998 41.2671 95.7308 41.9472C92.6445 42.7973 88.4188 43.0589 83.5572 45.6744C78.6955 48.2899 72.8567 45.8707 68.631 46.1323C64.4052 46.3939 60.7853 43.4516 56.0454 42.7324C52.2535 42.1571 46.471 43.8877 44.0537 44.825L44.6174 49.4674C47.6666 49.075 54.3882 48.2903 56.8813 48.2902C59.9976 48.2902 67.0465 51.0363 72.9665 51.2324C78.8864 51.4284 84.4336 50.1206 91.3021 47.7666C96.7969 45.8834 103.166 48.0716 105.663 49.401Z" fill="#A87616"/>
<path d="M138.83 29.2498L137.511 20.9006C133.276 21.5694 124.076 23.4687 121.157 25.7156C117.508 28.5243 111.986 31.2565 106.98 37.2559C101.975 43.2552 92.7277 43.5993 87.2062 46.3316C81.6847 49.0639 75.1123 47.4973 68.3298 49.3126C62.9038 50.7647 56.1468 56.1973 53.4466 58.7321L56.9049 64.1389C60.7706 61.9162 69.3388 57.1153 72.6861 55.6938C76.8702 53.9168 87.9324 53.2861 95.995 50.1525C104.058 47.019 110.744 42.2424 118.597 35.4214C124.879 29.9647 134.703 29.0333 138.83 29.2498Z" fill="#9D6E13"/>
<path d="M131.891 48.6798L132.757 40.2716C128.492 39.8322 119.112 39.3093 115.715 40.7326C111.467 42.5118 105.43 43.7371 99.0534 48.2525C92.677 52.7679 83.6507 50.7297 77.6132 51.955C71.5758 53.1802 65.6247 49.981 58.6035 49.9966C52.9865 50.009 45.0626 53.5276 41.8027 55.2853L43.7591 61.3981C48.0655 60.2408 57.5782 57.7972 61.1781 57.2814C65.6779 56.6366 76.5321 58.8632 85.1285 57.9015C93.725 56.9399 101.413 54.0374 110.752 49.4577C118.223 45.7939 127.957 47.4125 131.891 48.6798Z" fill="#9D6E13"/>
<path d="M54.8609 62.3917L50.2201 54.7932C53.7869 52.6148 61.8351 48.2437 65.4939 48.1864C70.0675 48.1148 75.9679 46.7792 83.6843 48.4169C91.4006 50.0547 98.4383 44.3956 104.339 43.06C110.239 41.7244 114.024 36.2376 120.236 33.3508C125.206 31.0413 133.831 31.0962 137.522 31.4123L138.61 38.0053C134.271 38.6898 124.738 40.3087 121.318 41.3083C117.044 42.5578 108.478 49.1504 100.438 51.793C92.3972 54.4356 84.2651 54.8662 73.9012 54.3919C65.6101 54.0123 57.753 59.567 54.8609 62.3917Z" fill="#8A5F0D"/>
<path d="M123.328 57.0826L125.564 51.2663C122.834 50.2169 116.742 48.2236 114.216 48.6458C111.058 49.1737 106.828 48.9989 101.723 51.1C96.6181 53.2011 91.0594 50.1937 86.8292 50.0189C82.599 49.8441 79.3012 46.5448 74.6605 45.3415C70.948 44.3788 65.018 45.505 62.5171 46.1884L62.5999 50.8642C65.6732 50.7878 72.4399 50.6992 74.9197 50.9558C78.0195 51.2766 84.7483 54.7337 90.6166 55.5382C96.4849 56.3426 102.137 55.6128 109.212 53.9784C114.871 52.6709 120.981 55.5031 123.328 57.0826Z" fill="#8A5F0D"/>
<path d="M128.422 37.3754L129.089 31.1801C126.181 30.8671 119.781 30.5053 117.449 31.5621C114.533 32.8832 110.399 33.8008 106.005 37.1426C101.611 40.4845 95.4665 39.0057 91.3333 39.9232C87.2001 40.8408 83.1655 38.4992 78.3715 38.5282C74.5362 38.5513 69.0944 41.1628 66.8529 42.4656L68.1339 46.9633C71.0846 46.1001 77.6015 44.2765 80.064 43.8875C83.1422 43.4014 90.5332 45.0143 96.4113 44.2846C102.289 43.5548 107.565 41.3977 113.982 38.0011C119.116 35.2839 125.748 36.4518 128.422 37.3754Z" fill="#A87616"/>
<path d="M111.645 60.3714L112.837 53.8725C109.541 53.2679 102.264 52.2838 99.5285 53.184C96.1094 54.3094 91.3293 54.893 86.0828 58.0197C80.8362 61.1465 73.9276 59.0032 69.1475 59.5869C64.3674 60.1705 59.9266 57.3116 54.4543 56.8921C50.0764 56.5565 43.6852 58.8112 41.0369 59.9806L42.1857 64.8643C45.6126 64.2272 53.1757 62.9078 56.0127 62.7272C59.5589 62.5014 67.8803 64.9037 74.6384 64.6828C81.3964 64.4619 87.5659 62.6728 95.1248 59.6781C101.172 57.2823 108.658 59.1421 111.645 60.3714Z" fill="#9D6E13"/>
<path d="M101.492 72.9015L104.31 66.9254C101.279 65.4958 94.4972 62.6788 91.6225 62.8477C88.0291 63.0588 83.2592 62.3973 77.3864 64.0744C71.5135 65.7514 65.3854 61.9085 60.6154 61.2471C55.8454 60.5857 52.2861 56.6838 47.1042 54.8752C42.9587 53.4284 36.2031 53.9692 33.3434 54.4204L33.2017 59.4355C36.6774 59.6983 44.326 60.3621 47.1145 60.9149C50.6001 61.6058 58.0274 66.0614 64.6162 67.5806C71.205 69.0997 77.627 68.9521 85.7009 67.9956C92.1601 67.2303 98.9194 70.9473 101.492 72.9015Z" fill="#9D6E13"/>
<path d="M41.1312 63.046L39.6786 56.2394C42.8735 55.5575 49.9418 54.4203 52.6549 55.3264C56.0463 56.4592 60.7438 57.0037 66.0097 60.2117C71.2757 63.4197 77.9326 61.0707 82.6301 61.6152C87.3276 62.1597 91.541 59.0946 96.8706 58.576C101.134 58.1611 107.48 60.4372 110.12 61.6271L109.214 66.7713C105.836 66.1513 98.3865 64.874 95.6059 64.7248C92.1302 64.5384 84.104 67.1796 77.4895 67.0442C70.875 66.9088 64.7663 65.1183 57.2463 62.082C51.2304 59.6529 43.9963 61.7125 41.1312 63.046Z" fill="#8A5F0D"/>
<path d="M92.999 76.8786L96.1554 73.1689C94.414 71.6873 90.4383 68.6382 88.4661 68.2949C86.0009 67.8657 82.9266 66.6402 78.6172 66.8664C74.3078 67.0926 70.988 63.4338 67.9137 62.2083C64.8394 60.9829 63.2627 57.6949 60.1523 55.6046C57.664 53.9323 52.999 53.2257 50.9775 53.0814L49.8266 56.551C52.1129 57.2914 57.126 58.9801 58.8882 59.8121C61.091 60.8522 65.157 65.1459 69.2761 67.2603C73.3952 69.3748 77.7527 70.3017 83.3934 70.9302C87.906 71.433 91.6773 75.1053 92.999 76.8786Z" fill="#8A5F0D"/>
<path d="M101.864 63.6659L103.962 59.27C101.898 58.2853 97.2727 56.3597 95.2785 56.5344C92.7857 56.7528 89.4998 56.358 85.3931 57.6835C81.2863 59.0089 77.1382 56.3255 73.8523 55.9308C70.5664 55.5361 68.1981 52.7634 64.6552 51.5421C61.8208 50.565 57.1308 51.0802 55.1401 51.46L54.9189 55.1088C57.3186 55.2371 62.5973 55.5816 64.5141 55.9331C66.9101 56.3725 71.9426 59.4779 76.4666 60.4634C80.9905 61.4489 85.4399 61.2256 91.0528 60.3842C95.5432 59.7111 100.131 62.2916 101.864 63.6659Z" fill="#A87616"/>
<path d="M83.7149 49.3462L84.9069 42.8472C81.6103 42.2426 74.3333 41.2585 71.598 42.1588C68.1789 43.2841 63.3988 43.8677 58.1523 46.9945C52.9058 50.1212 45.9972 47.9779 41.217 48.5616C36.4369 49.1452 31.9961 46.2863 26.5238 45.8668C22.1459 45.5312 15.7547 47.786 13.1064 48.9553L14.2552 53.8391C17.6821 53.202 25.2452 51.8826 28.0822 51.7019C31.6284 51.4761 39.9498 53.8785 46.7079 53.6576C53.466 53.4367 59.6354 51.6475 67.1943 48.6528C73.2414 46.257 80.7277 48.1168 83.7149 49.3462Z" fill="#9D6E13"/>
<path d="M73.5612 61.8763L76.3795 55.9001C73.3482 54.4706 66.5668 51.6536 63.6921 51.8225C60.0987 52.0336 55.3287 51.3721 49.4559 53.0492C43.5831 54.7262 37.455 50.8833 32.685 50.2219C27.915 49.5605 24.3556 45.6586 19.1738 43.85C15.0283 42.4032 8.27265 42.944 5.41302 43.3952L5.27126 48.4103C8.747 48.6731 16.3956 49.3369 19.1841 49.8896C22.6696 50.5806 30.097 55.0362 36.6858 56.5553C43.2746 58.0745 49.6965 57.9269 57.7705 56.9703C64.2297 56.2051 70.989 59.9221 73.5612 61.8763Z" fill="#9D6E13"/>
<path d="M13.2007 52.0207L11.748 45.2142C14.943 44.5323 22.0113 43.3951 24.7244 44.3012C28.1158 45.434 32.8133 45.9785 38.0792 49.1865C43.3451 52.3945 50.0021 50.0455 54.6996 50.59C59.3971 51.1345 63.6105 48.0694 68.9401 47.5508C73.2038 47.1359 79.5498 49.412 82.1898 50.6019L81.2834 55.7461C77.906 55.1261 70.456 53.8488 67.6754 53.6996C64.1997 53.5132 56.1735 56.1544 49.559 56.019C42.9445 55.8836 36.8358 54.0931 29.3158 51.0568C23.2998 48.6277 16.0658 50.6873 13.2007 52.0207Z" fill="#8A5F0D"/>
<path d="M65.0684 65.8533L68.2249 62.1436C66.4835 60.662 62.5078 57.6129 60.5356 57.2696C58.0704 56.8404 54.9961 55.6149 50.6867 55.8411C46.3772 56.0673 43.0575 52.4085 39.9832 51.1831C36.9089 49.9576 35.3322 46.6696 32.2218 44.5793C29.7335 42.9071 25.0685 42.2004 23.047 42.0561L21.8961 45.5257C24.1823 46.2661 29.1954 47.9548 30.9577 48.7868C33.1605 49.8269 37.2265 54.1206 41.3456 56.2351C45.4647 58.3495 49.8222 59.2765 55.4629 59.905C59.9755 60.4078 63.7468 64.08 65.0684 65.8533Z" fill="#8A5F0D"/>
<path d="M73.9335 52.6407L76.0312 48.2447C73.9677 47.26 69.3422 45.3344 67.348 45.5091C64.8552 45.7275 61.5693 45.3328 57.4626 46.6582C53.3558 47.9836 49.2077 45.3003 45.9218 44.9055C42.6359 44.5108 40.2676 41.7381 36.7246 40.5168C33.8903 39.5397 29.2003 40.055 27.2096 40.4347L26.9884 44.0836C29.3881 44.2119 34.6668 44.5563 36.5836 44.9078C38.9796 45.3472 44.012 48.4526 48.536 49.4381C53.06 50.4237 57.5094 50.2003 63.1223 49.359C67.6127 48.6859 72.2007 51.2663 73.9335 52.6407Z" fill="#A87616"/>
<path d="M116.141 51.4759L115.533 44.8965C112.196 45.2049 104.923 46.223 102.533 47.8287C99.5447 49.8358 95.1 51.6889 90.8931 56.1166C86.6862 60.5443 79.4555 60.3469 75.0107 62.2C70.5659 64.0532 65.518 62.5001 60.1357 63.5744C55.8299 64.4338 50.2854 68.3312 48.0514 70.1724L50.4767 74.5643C53.6041 73.0252 60.5297 69.7119 63.2124 68.7716C66.5658 67.5963 75.2268 67.6616 81.674 65.6234C88.1211 63.5852 93.578 60.196 100.047 55.2708C105.222 51.3307 112.932 51.0991 116.141 51.4759Z" fill="#9D6E13"/>
<path d="M109.749 66.2829L110.848 59.7676C107.543 59.21 100.253 58.3296 97.5311 59.2687C94.1283 60.4426 89.357 61.0942 84.1555 64.2953C78.954 67.4964 72.0156 65.4517 67.2443 66.1033C62.4729 66.755 57.9919 63.9595 52.5141 63.618C48.1319 63.3447 41.7735 65.6902 39.1421 66.8972L40.3603 71.7641C43.7778 71.0782 51.3214 69.6513 54.1555 69.4303C57.6981 69.154 66.0529 71.4377 72.8071 71.1206C79.5613 70.8036 85.7047 68.9267 93.2202 65.8247C99.2325 63.3431 106.745 65.0962 109.749 66.2829Z" fill="#9D6E13"/>
<path d="M48.9703 73.0984L45.733 66.9373C48.625 65.4177 55.1233 62.4135 57.9804 62.5531C61.5516 62.7276 66.2216 61.983 72.1583 63.6493C78.0951 65.3156 83.87 61.2557 88.54 60.5111C93.21 59.7665 96.4388 55.6771 101.43 53.7382C105.423 52.187 112.148 52.6643 115.012 53.0969L115.528 58.2946C112.109 58.61 104.591 59.3926 101.873 60.0001C98.4765 60.7594 91.4621 65.4705 85.057 67.1268C78.6518 68.7832 72.2865 68.7094 64.2259 67.8172C57.7774 67.1035 51.3686 71.0406 48.9703 73.0984Z" fill="#8A5F0D"/>
<path d="M102.646 72.4062L104.683 67.9818C102.606 67.0257 97.9549 65.1639 95.9633 65.366C93.4738 65.6187 90.1827 65.2692 86.0946 66.651C82.0065 68.0329 77.8219 65.4069 74.5308 65.0574C71.2398 64.7079 68.8335 61.9681 65.2741 60.7956C62.4266 59.8577 57.7441 60.4374 55.7588 60.8445L55.5879 64.4961C57.9891 64.5913 63.272 64.8631 65.1935 65.1882C67.5954 65.5946 72.6701 68.6304 77.2072 69.5536C81.7443 70.4767 86.1902 70.1922 91.791 69.2737C96.2717 68.5388 100.895 71.0559 102.646 72.4062Z" fill="#8A5F0D"/>
<path d="M107.613 57.2901L108.445 52.4909C106.192 52.1002 101.219 51.4956 99.3457 52.2025C97.0046 53.0862 93.7342 53.5937 90.1381 55.9792C86.5421 58.3647 81.8233 56.9015 78.5529 57.4091C75.2826 57.9166 72.2533 55.8867 68.5122 55.6678C65.5193 55.4927 61.1428 57.2556 59.3286 58.159L60.1013 61.732C62.4465 61.2073 67.622 60.1131 69.5625 59.9337C71.9881 59.7096 77.6723 61.3401 82.2944 61.067C86.9164 60.7939 91.1401 59.377 96.317 57.0507C100.459 55.1897 105.573 56.4349 107.613 57.2901Z" fill="#A87616"/>
<ellipse cx="52.7636" cy="5.63922" rx="10.5006" ry="5.63922" fill="url(#paint1_linear_4_1203)"/>
<ellipse cx="67.9312" cy="5.63922" rx="10.5006" ry="5.63922" fill="url(#paint2_linear_4_1203)"/>
<ellipse cx="82.7099" cy="5.63922" rx="10.5006" ry="5.63922" fill="url(#paint3_linear_4_1203)"/>
<ellipse cx="95.9328" cy="7.5838" rx="10.5006" ry="5.63922" fill="url(#paint4_linear_4_1203)"/>
<ellipse cx="110.711" cy="12.4452" rx="14.3897" ry="7.77824" fill="url(#paint5_linear_4_1203)"/>
<ellipse cx="125.101" cy="18.6678" rx="15.9454" ry="8.55606" fill="url(#paint6_linear_4_1203)"/>
<ellipse cx="39.1517" cy="7.5838" rx="10.5006" ry="5.63922" fill="url(#paint7_linear_4_1203)"/>
<ellipse cx="25.7342" cy="13.0285" rx="13.4175" ry="7.19487" fill="url(#paint8_linear_4_1203)"/>
<ellipse cx="19.7061" cy="20.2234" rx="17.501" ry="9.33389" fill="url(#paint9_linear_4_1203)"/>
<ellipse cx="32.1512" cy="27.2238" rx="17.501" ry="9.33389" fill="url(#paint10_linear_4_1203)"/>
<ellipse cx="54.7082" cy="33.0575" rx="17.501" ry="9.33389" fill="url(#paint11_linear_4_1203)"/>
<ellipse cx="74.9316" cy="36.5577" rx="17.501" ry="9.33389" fill="url(#paint12_linear_4_1203)"/>
<ellipse cx="95.9328" cy="33.0575" rx="17.501" ry="9.33389" fill="url(#paint13_linear_4_1203)"/>
<ellipse cx="117.712" cy="27.2238" rx="17.501" ry="9.33389" fill="url(#paint14_linear_4_1203)"/>
<defs>
<linearGradient id="paint0_linear_4_1203" x1="74.4202" y1="4.73093" x2="74.4202" y2="59.591" gradientUnits="userSpaceOnUse">
<stop stop-color="#734C00"/>
<stop offset="1" stop-color="#070300"/>
</linearGradient>
<linearGradient id="paint1_linear_4_1203" x1="52.7636" y1="0" x2="52.7636" y2="11.2784" gradientUnits="userSpaceOnUse">
<stop stop-color="#936710"/>
<stop offset="1" stop-color="#D79921"/>
</linearGradient>
<linearGradient id="paint2_linear_4_1203" x1="67.9312" y1="0" x2="67.9312" y2="11.2784" gradientUnits="userSpaceOnUse">
<stop stop-color="#936710"/>
<stop offset="1" stop-color="#D79921"/>
</linearGradient>
<linearGradient id="paint3_linear_4_1203" x1="82.7099" y1="0" x2="82.7099" y2="11.2784" gradientUnits="userSpaceOnUse">
<stop stop-color="#936710"/>
<stop offset="1" stop-color="#D79921"/>
</linearGradient>
<linearGradient id="paint4_linear_4_1203" x1="95.9328" y1="1.94458" x2="95.9328" y2="13.223" gradientUnits="userSpaceOnUse">
<stop stop-color="#936710"/>
<stop offset="1" stop-color="#D79921"/>
</linearGradient>
<linearGradient id="paint5_linear_4_1203" x1="110.711" y1="4.66693" x2="110.711" y2="20.2234" gradientUnits="userSpaceOnUse">
<stop stop-color="#936710"/>
<stop offset="1" stop-color="#D79921"/>
</linearGradient>
<linearGradient id="paint6_linear_4_1203" x1="125.101" y1="10.1117" x2="125.101" y2="27.2238" gradientUnits="userSpaceOnUse">
<stop stop-color="#936710"/>
<stop offset="1" stop-color="#D79921"/>
</linearGradient>
<linearGradient id="paint7_linear_4_1203" x1="39.1517" y1="1.94458" x2="39.1517" y2="13.223" gradientUnits="userSpaceOnUse">
<stop stop-color="#936710"/>
<stop offset="1" stop-color="#D79921"/>
</linearGradient>
<linearGradient id="paint8_linear_4_1203" x1="25.7342" y1="5.83368" x2="25.7342" y2="20.2234" gradientUnits="userSpaceOnUse">
<stop stop-color="#936710"/>
<stop offset="1" stop-color="#D79921"/>
</linearGradient>
<linearGradient id="paint9_linear_4_1203" x1="19.7061" y1="10.8895" x2="19.7061" y2="29.5573" gradientUnits="userSpaceOnUse">
<stop stop-color="#936710"/>
<stop offset="1" stop-color="#D79921"/>
</linearGradient>
<linearGradient id="paint10_linear_4_1203" x1="32.1512" y1="17.89" x2="32.1512" y2="36.5577" gradientUnits="userSpaceOnUse">
<stop stop-color="#936710"/>
<stop offset="1" stop-color="#D79921"/>
</linearGradient>
<linearGradient id="paint11_linear_4_1203" x1="54.7082" y1="23.7236" x2="54.7082" y2="42.3914" gradientUnits="userSpaceOnUse">
<stop stop-color="#936710"/>
<stop offset="1" stop-color="#D79921"/>
</linearGradient>
<linearGradient id="paint12_linear_4_1203" x1="74.9316" y1="27.2238" x2="74.9316" y2="45.8916" gradientUnits="userSpaceOnUse">
<stop stop-color="#936710"/>
<stop offset="1" stop-color="#D79921"/>
</linearGradient>
<linearGradient id="paint13_linear_4_1203" x1="95.9328" y1="23.7236" x2="95.9328" y2="42.3914" gradientUnits="userSpaceOnUse">
<stop stop-color="#936710"/>
<stop offset="1" stop-color="#D79921"/>
</linearGradient>
<linearGradient id="paint14_linear_4_1203" x1="117.712" y1="17.89" x2="117.712" y2="36.5577" gradientUnits="userSpaceOnUse">
<stop stop-color="#936710"/>
<stop offset="1" stop-color="#D79921"/>
</linearGradient>
</defs>
</svg>
